<svg aria-hidden="true" style="position: absolute; width: 0; height: 0; overflow: hidden;" version="1.1" xmlns="http://www.w3.org/2000/svg" xmlns:xlink="http://www.w3.org/1999/xlink">
<defs>
<symbol id="icon-phone" viewBox="0 0 32 32">
<path d="M25.29 19.823c-0.655-0.682-1.445-1.047-2.283-1.047-0.831 0-1.628 0.358-2.31 1.040l-2.134 2.127c-0.176-0.094-0.351-0.182-0.52-0.27-0.243-0.122-0.473-0.236-0.669-0.358-1.999-1.27-3.816-2.924-5.558-5.065-0.844-1.067-1.412-1.965-1.824-2.877 0.554-0.507 1.067-1.033 1.567-1.54 0.189-0.189 0.378-0.385 0.567-0.574 1.418-1.418 1.418-3.255 0-4.674l-1.844-1.844c-0.209-0.209-0.425-0.426-0.628-0.642-0.405-0.419-0.831-0.851-1.27-1.256-0.655-0.648-1.439-0.993-2.263-0.993s-1.621 0.344-2.296 0.993c-0.007 0.007-0.007 0.007-0.014 0.014l-2.296 2.317c-0.865 0.864-1.358 1.918-1.466 3.141-0.162 1.972 0.419 3.809 0.865 5.011 1.094 2.951 2.729 5.687 5.167 8.618 2.958 3.532 6.517 6.322 10.583 8.287 1.553 0.736 3.627 1.607 5.943 1.756 0.142 0.007 0.29 0.014 0.425 0.014 1.56 0 2.87-0.561 3.897-1.675 0.007-0.014 0.020-0.020 0.027-0.034 0.351-0.426 0.756-0.811 1.182-1.223 0.29-0.277 0.588-0.567 0.878-0.871 0.669-0.696 1.020-1.506 1.020-2.337 0-0.837-0.358-1.641-1.040-2.317l-3.708-3.721zM27.708 26.935c-0.007 0-0.007 0.007 0 0-0.263 0.284-0.534 0.54-0.824 0.824-0.439 0.419-0.885 0.858-1.303 1.351-0.682 0.729-1.486 1.074-2.539 1.074-0.101 0-0.209 0-0.311-0.007-2.006-0.128-3.87-0.912-5.268-1.58-3.823-1.851-7.179-4.478-9.969-7.807-2.303-2.776-3.843-5.342-4.863-8.098-0.628-1.682-0.858-2.992-0.756-4.228 0.068-0.79 0.371-1.445 0.932-2.006l2.303-2.303c0.331-0.311 0.682-0.48 1.027-0.48 0.426 0 0.77 0.257 0.986 0.473 0.007 0.007 0.013 0.013 0.020 0.020 0.412 0.385 0.804 0.783 1.216 1.209 0.209 0.216 0.425 0.432 0.642 0.655l1.844 1.844c0.716 0.716 0.716 1.378 0 2.094-0.196 0.196-0.385 0.392-0.581 0.581-0.567 0.581-1.108 1.121-1.695 1.648-0.014 0.014-0.027 0.020-0.034 0.034-0.581 0.581-0.473 1.148-0.351 1.533 0.007 0.020 0.014 0.041 0.020 0.061 0.48 1.162 1.155 2.256 2.181 3.559l0.007 0.007c1.864 2.296 3.829 4.086 5.997 5.457 0.277 0.176 0.561 0.317 0.831 0.452 0.243 0.122 0.473 0.236 0.669 0.358 0.027 0.014 0.054 0.034 0.081 0.047 0.23 0.115 0.446 0.169 0.669 0.169 0.561 0 0.912-0.351 1.026-0.466l2.31-2.31c0.23-0.23 0.594-0.506 1.020-0.506 0.419 0 0.763 0.263 0.973 0.493 0.007 0.007 0.007 0.007 0.014 0.014l3.721 3.721c0.696 0.689 0.696 1.398 0.007 2.114z"></path>
<path d="M17.294 7.612c1.77 0.297 3.377 1.135 4.66 2.418s2.114 2.891 2.418 4.66c0.074 0.446 0.459 0.756 0.898 0.756 0.054 0 0.101-0.007 0.155-0.014 0.5-0.081 0.831-0.554 0.75-1.054-0.365-2.141-1.378-4.093-2.925-5.639s-3.498-2.56-5.639-2.924c-0.5-0.081-0.966 0.25-1.054 0.743s0.236 0.973 0.736 1.054z"></path>
<path d="M31.963 14.116c-0.601-3.525-2.263-6.734-4.815-9.287s-5.761-4.214-9.287-4.815c-0.493-0.088-0.959 0.25-1.047 0.743-0.081 0.5 0.25 0.966 0.75 1.054 3.147 0.534 6.018 2.026 8.301 4.302 2.283 2.283 3.769 5.153 4.302 8.3 0.074 0.446 0.459 0.756 0.898 0.756 0.054 0 0.101-0.007 0.155-0.014 0.493-0.074 0.831-0.547 0.743-1.040z"></path>
</symbol>
<symbol id="icon-salver" viewBox="0 0 46 32">
<path d="M9.598 21.296c-0.223 0.324-0.142 0.768 0.182 0.992s0.768 0.142 0.992-0.182c0.005-0.007 0.009-0.014 0.014-0.021 2.479-3.752 6.676-6.009 11.172-6.008 0.394 0 0.713-0.319 0.713-0.713s-0.319-0.713-0.713-0.713c-4.975-0.001-9.618 2.495-12.36 6.646z"></path>
<path d="M44.926 30.339h-4.279v-0.861c0.017-4.62-1.867-9.043-5.21-12.233-0.277-0.28-0.728-0.283-1.009-0.006s-0.283 0.728-0.006 1.009c0.008 0.008 0.017 0.017 0.026 0.025 3.062 2.922 4.787 6.973 4.772 11.205v0.861h-32.803v-0.861c0.009-8.579 6.962-15.531 15.54-15.54h1.723c1.325-0.001 2.644 0.167 3.926 0.499 0.377 0.113 0.775-0.101 0.888-0.479s-0.101-0.775-0.479-0.888c-0.017-0.005-0.035-0.010-0.052-0.014-0.985-0.254-1.991-0.419-3.005-0.493v-2.192c0-0.394-0.319-0.713-0.713-0.713h-2.852c-0.394 0-0.713 0.319-0.713 0.713v2.192c-8.843 0.677-15.677 8.044-15.689 16.914v0.861h-4.279c-0.394 0-0.713 0.319-0.713 0.713s0.319 0.713 0.713 0.713h44.213c0.394 0 0.713-0.319 0.713-0.713s-0.319-0.713-0.713-0.713zM22.107 11.085h1.426v1.426h-1.426v-1.426z"></path>
<path d="M30.189 9.118c0.664 0.593 1.188 1.060 1.188 2.015s-0.524 1.423-1.188 2.019c-1.009 0.705-1.626 1.846-1.664 3.076 0 0.394 0.319 0.713 0.713 0.713s0.713-0.319 0.713-0.713c0-0.955 0.524-1.423 1.188-2.015 1.010-0.706 1.627-1.848 1.664-3.080-0.038-1.232-0.655-2.373-1.664-3.079-0.664-0.593-1.188-1.060-1.188-2.015s0.524-1.421 1.188-2.014c1.010-0.705 1.627-1.847 1.664-3.078 0-0.394-0.319-0.713-0.713-0.713s-0.713 0.319-0.713 0.713c0 0.953-0.524 1.421-1.188 2.013-1.010 0.706-1.627 1.847-1.664 3.079 0.038 1.231 0.655 2.373 1.664 3.079z"></path>
<path d="M34.468 9.118c0.664 0.593 1.188 1.060 1.188 2.015s-0.524 1.426-1.188 2.016c-1.010 0.706-1.627 1.848-1.664 3.079 0 0.394 0.319 0.713 0.713 0.713s0.713-0.319 0.713-0.713c0-0.955 0.524-1.423 1.188-2.015 1.010-0.706 1.627-1.848 1.664-3.080-0.038-1.232-0.655-2.373-1.664-3.079-0.664-0.593-1.188-1.060-1.188-2.015s0.524-1.421 1.188-2.014c1.010-0.705 1.627-1.847 1.664-3.078 0-0.394-0.319-0.713-0.713-0.713s-0.713 0.319-0.713 0.713c0 0.953-0.524 1.421-1.188 2.013-1.010 0.706-1.627 1.847-1.664 3.079 0.038 1.231 0.655 2.373 1.664 3.079z"></path>
<path d="M38.746 9.118c0.664 0.593 1.188 1.060 1.188 2.015s-0.524 1.426-1.188 2.016c-1.010 0.706-1.627 1.848-1.664 3.079 0 0.394 0.319 0.713 0.713 0.713s0.713-0.319 0.713-0.713c0-0.955 0.524-1.423 1.188-2.015 1.010-0.706 1.627-1.848 1.664-3.080-0.038-1.232-0.655-2.373-1.664-3.079-0.664-0.593-1.188-1.060-1.188-2.015s0.524-1.421 1.188-2.014c1.010-0.705 1.627-1.847 1.664-3.078 0-0.394-0.319-0.713-0.713-0.713s-0.713 0.319-0.713 0.713c0 0.953-0.524 1.421-1.188 2.013-1.010 0.706-1.627 1.847-1.664 3.079 0.038 1.231 0.655 2.373 1.664 3.079z"></path>
</symbol>
<symbol id="icon-logo" viewBox="0 0 47 32">
<path fill="none" stroke="#ff7400" style="stroke: var(--color1, #ff7400)" stroke-linejoin="miter" stroke-linecap="butt" stroke-miterlimit="4" stroke-width="1.4118" d="M0.998 15.991l14.993-14.993 14.993 14.993-14.993 14.993z"></path>
<path fill="none" stroke="#ff7400" style="stroke: var(--color1, #ff7400)" stroke-linejoin="miter" stroke-linecap="butt" stroke-miterlimit="4" stroke-width="1.4118" d="M16.075 15.991l14.993-14.993 14.993 14.993-14.993 14.993z"></path>
</symbol>
</defs>
</svg>
